# xmcd
#
# Track frame offsets: 
#        150
#        8479
#        32560
#        40922
#        66468
#        87272
#        94446
#        109753
#        142422
#        154591
#        181325
#        191956
#        215410
#        248634
#
# Disc length: 3460 seconds
#
# Revision: 3
# Processed by: cddbd v1.5.2PL0 Copyright (c) Steve Scherf et al.
# Submitted via: ExactAudioCopy v0.99pb5
#
DISCID=c50d820e
DTITLE=Sarah Vaughan - Live In Tokyo - CD1
DYEAR=1973
DGENRE=Jazz
TTITLE0=A Foggy Day
TTITLE1=Poor Butterfly
TTITLE2=The Lamp Is Low
TTITLE3='Round Midnight
TTITLE4=Willow Weep For Me
TTITLE5=There Will Never Be Another You
TTITLE6=Misty
TTITLE7=Wave
TTITLE8=Like Someone In Love
TTITLE9=My Funny Valentine
TTITLE10=All Of Me
TTITLE11=Love Story (Where Do I Begin)
TTITLE12=Over The Rainbow
TTITLE13=I Could Write A Book
EXTD=YEAR: 1972
EXTT0=
EXTT1=
EXTT2=
EXTT3=
EXTT4=
EXTT5=
EXTT6=
EXTT7=
EXTT8=
EXTT9=
EXTT10=
EXTT11=
EXTT12=
EXTT13=
PLAYORDER=
